<?xml version="1.0" encoding="iso-8859-1"?>
<!-- Generator: Adobe Illustrator 19.0.0, SVG Export Plug-In . SVG Version: 6.00 Build 0)  -->
<svg version="1.1" id="Layer_1" xmlns="http://www.w3.org/2000/svg" xmlns:xlink="http://www.w3.org/1999/xlink" x="0px" y="0px"
	 viewBox="0 0 512 512" style="enable-background:new 0 0 512 512;" xml:space="preserve">
<circle style="fill:#F7B239;" cx="256.004" cy="256.004" r="246.855"/>
<path style="fill:#E09B2D;" d="M126.308,385.694c-88.802-88.802-95.799-228.426-20.999-325.241
	c-8.286,6.401-16.258,13.399-23.858,20.999c-96.401,96.401-96.401,252.698,0,349.099s252.698,96.401,349.099,0
	c7.599-7.599,14.597-15.573,20.999-23.858C354.734,481.492,215.108,474.495,126.308,385.694z"/>
<path style="fill:#FFFFFF;" d="M441.407,153.731c-3.101,0-6.125-1.576-7.843-4.425c-32.265-53.485-85.984-89.32-147.383-98.316
	c-4.999-0.733-8.459-5.38-7.726-10.379s5.381-8.451,10.379-7.726c66.834,9.792,125.298,48.782,160.399,106.97
	c2.611,4.327,1.219,9.95-3.108,12.56C444.646,153.306,443.016,153.731,441.407,153.731z"/>
<path style="fill:#4D4D4D;" d="M256.001,184.864L256.001,184.864c14.551,0,29.02-1.978,43.1-5.65
	c53.478-13.946,112.377-5.29,149.086,3.183c19.574,4.519,30.868,25.04,24.163,43.978l-20.669,58.372
	c-4.75,13.414-17.654,22.198-31.877,21.698l-94.167-3.316c-15.87-0.559-29.283-11.933-32.426-27.5l-4.758-23.558
	c-3.119-15.446-16.695-26.551-32.452-26.548l0,0l0,0c-15.759,0-29.333,11.108-32.453,26.554l-4.757,23.552
	c-3.144,15.565-16.557,26.94-32.426,27.5l-94.167,3.316c-14.222,0.501-27.127-8.282-31.876-21.698l-20.669-58.372
	c-6.706-18.937,4.589-39.459,24.163-43.978c36.709-8.472,95.607-17.129,149.086-3.183
	C226.981,182.885,241.449,184.864,256.001,184.864L256.001,184.864z"/>
<g>
	<path style="fill:#FFFFFF;" d="M441.885,218.886c-0.682,0-1.374-0.077-2.065-0.235c-18.022-4.16-45.688-9.196-75.15-9.566
		c-5.053-0.063-9.097-4.211-9.034-9.264c0.063-5.053,4.219-9.102,9.264-9.034c31.088,0.39,60.138,5.67,79.035,10.033
		c4.924,1.137,7.993,6.05,6.857,10.973C449.815,216.024,446.049,218.886,441.885,218.886z M205.826,215.516
		c-0.764,0-1.541-0.096-2.314-0.299c-15.658-4.083-33.406-6.153-52.749-6.153c-11.343,0-23.376,0.725-35.766,2.156
		c-5.015,0.577-9.558-3.021-10.139-8.041c-0.579-5.02,3.021-9.558,8.041-10.139c13.084-1.51,25.822-2.275,37.864-2.275
		c20.9,0,40.201,2.269,57.366,6.746c4.89,1.275,7.82,6.273,6.545,11.162C213.6,212.788,209.889,215.516,205.826,215.516z"/>
	<circle style="fill:#FFFFFF;" cx="256.004" cy="39.648" r="9.15"/>
	<circle style="fill:#FFFFFF;" cx="86.433" cy="205.096" r="9.15"/>
	<circle style="fill:#FFFFFF;" cx="335.3" cy="201.436" r="9.15"/>
</g>
<g>
	<path style="fill:#333333;" d="M255.999,512C114.841,512,0,397.16,0,256.001S114.841,0,255.999,0
		C397.159,0,512,114.841,512,256.001S397.159,512,255.999,512z M255.999,18.299c-131.068,0-237.7,106.632-237.7,237.702
		s106.632,237.702,237.7,237.702c131.069,0,237.702-106.632,237.702-237.702S387.068,18.299,255.999,18.299z"/>
	<path style="fill:#333333;" d="M256.269,391.607c-2.716,0-5.443-0.051-8.186-0.155c-42.952-1.624-80.516-15.925-103.062-39.237
		c-3.513-3.633-3.416-9.425,0.216-12.937c3.633-3.515,9.425-3.416,12.937,0.216c40.228,41.595,138.107,45.631,187.018,7.708
		c2.506-1.942,7.259-6.399,8.879-7.952c3.646-3.496,9.437-3.376,12.936,0.272c3.498,3.648,3.376,9.439-0.272,12.936
		c-0.666,0.638-6.616,6.324-10.33,9.204C331.637,380.865,295.496,391.607,256.269,391.607z"/>
	<path style="fill:#333333;" d="M420.986,315.612c-0.501,0-1-0.009-1.504-0.026l-94.167-3.316
		c-20.185-0.711-37.075-15.035-41.073-34.832l-4.758-23.558c-2.248-11.132-12.123-19.21-23.478-19.21c-0.001,0-0.002,0-0.004,0
		c-11.361,0-21.238,8.082-23.486,19.215l-4.757,23.553c-3.998,19.798-20.888,34.12-41.073,34.832l-94.167,3.316
		c-18.28,0.615-34.708-10.522-40.823-27.787l-20.669-58.372c-4.061-11.469-3.034-24.162,2.817-34.826
		c5.859-10.681,16.034-18.378,27.913-21.121c40.032-9.239,99.151-17.283,153.454-3.122c13.623,3.552,27.347,5.354,40.791,5.354l0,0
		c13.444,0,27.168-1.802,40.791-5.354c54.302-14.16,113.421-6.118,153.452,3.121c11.88,2.742,22.054,10.44,27.913,21.121
		c5.851,10.665,6.878,23.357,2.817,34.826l-20.669,58.372C454.359,304.588,438.678,315.611,420.986,315.612z M150.311,180.969
		c-23.43,0-51.525,2.745-84.439,10.341c-6.805,1.57-12.631,5.978-15.986,12.092c-3.395,6.188-3.966,13.261-1.61,19.916
		l20.669,58.372c3.434,9.697,12.647,15.962,22.929,15.607l94.167-3.316c11.687-0.411,21.465-8.704,23.78-20.166l4.757-23.553
		c3.966-19.639,21.387-33.892,41.422-33.892c0.002,0,0.005,0,0.007,0c20.03,0,37.447,14.25,41.413,33.886l4.758,23.558
		c2.314,11.463,12.093,19.756,23.78,20.167l94.167,3.316c10.294,0.367,19.496-5.909,22.93-15.607l20.669-58.372
		c2.357-6.656,1.785-13.728-1.61-19.916c-3.355-6.114-9.181-10.522-15.986-12.092c-38.033-8.777-94.012-16.469-144.719-3.245
		c-15.131,3.945-30.408,5.946-45.409,5.946c-15,0-30.279-2.001-45.41-5.946C195.972,184.255,175.932,180.969,150.311,180.969z"/>
</g>
<g>
</g>
<g>
</g>
<g>
</g>
<g>
</g>
<g>
</g>
<g>
</g>
<g>
</g>
<g>
</g>
<g>
</g>
<g>
</g>
<g>
</g>
<g>
</g>
<g>
</g>
<g>
</g>
<g>
</g>
</svg>
