<svg version="1.1" id="underground" xmlns="http://www.w3.org/2000/svg" xmlns:xlink="http://www.w3.org/1999/xlink" x="0px"
     y="0px" viewBox="0 0 960 560" enable-background="new 0 0 960 560" preserveAspectRatio="xMinYMin meet">


    <path id="outer-circle" fill="none" stroke="#1A1A1A" stroke-width="10" stroke-miterlimit="10" d="M707.6,205
	c58,190.1-113.4,361.6-303.3,303.6c-73.1-22.3-130.5-79.8-152.8-152.9C193.4,165.5,364.8-6,554.7,52
	C627.8,74.4,685.2,131.8,707.6,205z"/>
    <path id="red-circle" fill="#FFFFFF" stroke="#CE0202" stroke-width="100" stroke-miterlimit="10" d="M659.7,260.9
	C672.1,376.5,575.5,473,460,460.6c-83.9-9-150.7-75.8-159.7-159.7C287.9,185.4,384.5,88.8,500,101.2
	C584.2,110.3,650.4,174.3,659.7,260.9z"/>
    <path id="inner-circle" fill="#FFFFFF" stroke="#000000" stroke-width="5" stroke-miterlimit="10" d="M601.7,280.6
	c0.6,76.3-68.7,136.5-147.5,120c-46.4-9.7-82.7-46.1-92.4-92.6c-16.5-79,43.6-148.5,119.7-147.9
	C547.3,160.6,601.2,214.5,601.7,280.6z"/>
    <rect id="underground-bg" x="185.5" y="228.4" fill="#001384" stroke="#000000" stroke-width="5" stroke-miterlimit="10" width="600" height="120"/>
    <g id="underground-text">
        <path fill="#FFFFFF" stroke="#FFFFFF" stroke-width="2" stroke-miterlimit="10" d="M287.8,264.1h5.9v23.2c0,3.1-0.2,5.5-0.7,7.1
		c-0.5,1.6-1,2.9-1.7,4c-0.7,1.1-1.5,2-2.5,2.9c-3.2,2.8-7.5,4.2-12.7,4.2c-5.3,0-9.6-1.4-12.8-4.2c-1-0.9-1.8-1.8-2.5-2.9
		c-0.7-1.1-1.2-2.4-1.7-3.9s-0.7-4-0.7-7.3v-23.2h5.9v23.2c0,3.8,0.4,6.5,1.3,8s2.2,2.7,4,3.6c1.8,0.9,3.9,1.4,6.4,1.4
		c3.5,0,6.3-0.9,8.5-2.7c1.2-1,2-2.1,2.5-3.5c0.5-1.3,0.8-3.6,0.8-6.8V264.1z"/>
        <path fill="#FFFFFF" stroke="#FFFFFF" stroke-width="2" stroke-miterlimit="10" d="M334.3,264.1h5.6V305h-5l-27.4-31.5V305H302
		v-40.9h4.7l27.6,31.8V264.1z"/>
        <path fill="#FFFFFF" stroke="#FFFFFF" stroke-width="2" stroke-miterlimit="10" d="M348.7,304.9v-40.9h13.8c5.6,0,10,0.8,13.2,2.5
		c3.2,1.7,5.8,4.1,7.7,7.4c1.9,3.2,2.9,6.8,2.9,10.6c0,2.7-0.5,5.4-1.6,7.9s-2.6,4.7-4.5,6.6c-2,2-4.3,3.4-6.9,4.4
		c-1.5,0.6-3,1-4.2,1.2s-3.8,0.3-7.4,0.3H348.7z M361.9,269.3h-7.3v30.4h7.5c2.9,0,5.2-0.2,6.8-0.6c1.6-0.4,3-0.9,4.1-1.5
		s2.1-1.4,3-2.3c2.9-2.9,4.3-6.6,4.3-11.1c0-4.4-1.5-8-4.5-10.8c-1.1-1-2.3-1.9-3.8-2.5c-1.4-0.7-2.8-1.1-4-1.3
		C366.8,269.4,364.7,269.3,361.9,269.3z"/>
        <path fill="#FFFFFF" stroke="#FFFFFF" stroke-width="2" stroke-miterlimit="10" d="M393.7,264.1h23.2v5.2h-17.3v12.5h16.8v5.2
		h-16.8v12.7h17.9v5.2h-23.8V264.1z"/>
        <path fill="#FFFFFF" stroke="#FFFFFF" stroke-width="2" stroke-miterlimit="10" d="M423.8,305v-40.9h10.3c4.1,0,7.4,1,9.9,3.1
		s3.6,4.8,3.6,8.3c0,2.4-0.6,4.4-1.8,6.2c-1.2,1.7-2.9,3-5.1,3.9c1.3,0.9,2.6,2,3.8,3.5c1.2,1.5,3,4.1,5.3,7.8
		c1.4,2.3,2.6,4.1,3.4,5.2l2.2,2.9h-7l-1.8-2.7c-0.1-0.1-0.2-0.3-0.4-0.5l-1.1-1.6l-1.8-3l-2-3.2c-1.2-1.7-2.3-3-3.3-4
		c-1-1-1.9-1.7-2.7-2.2c-0.8-0.4-2.2-0.7-4.1-0.7h-1.5V305H423.8z M431.5,269.1h-1.8V282h2.2c3,0,5-0.3,6.1-0.8
		c1.1-0.5,2-1.3,2.6-2.3s0.9-2.2,0.9-3.5c0-1.3-0.3-2.5-1-3.5c-0.7-1-1.6-1.8-2.9-2.2C436.4,269.3,434.3,269.1,431.5,269.1z"/>
        <path fill="#FFFFFF" stroke="#FFFFFF" stroke-width="2" stroke-miterlimit="10" d="M482,284.8h13.7v17.3c-5,2.2-10,3.3-15,3.3
		c-6.8,0-12.2-2-16.2-5.9c-4.1-4-6.1-8.8-6.1-14.6c0-6.1,2.1-11.2,6.3-15.3c4.2-4.1,9.5-6.1,15.8-6.1c2.3,0,4.5,0.2,6.6,0.7
		s4.7,1.4,7.9,2.7v6c-4.9-2.8-9.7-4.2-14.5-4.2c-4.5,0-8.2,1.5-11.3,4.6c-3.1,3-4.6,6.8-4.6,11.2c0,4.6,1.5,8.4,4.6,11.4
		c3.1,2.9,7,4.4,11.8,4.4c2.3,0,5.1-0.5,8.4-1.6l0.6-0.2v-8.5H482V284.8z"/>
        <path fill="#FFFFFF" stroke="#FFFFFF" stroke-width="2" stroke-miterlimit="10" d="M504.5,305v-40.9h10.3c4.1,0,7.4,1,9.9,3.1
		s3.6,4.8,3.6,8.3c0,2.4-0.6,4.4-1.8,6.2s-2.9,3-5.1,3.9c1.3,0.9,2.6,2,3.8,3.5s3,4.1,5.3,7.8c1.4,2.3,2.6,4.1,3.4,5.2l2.2,2.9h-7
		l-1.8-2.7c-0.1-0.1-0.2-0.3-0.4-0.5l-1.1-1.6l-1.8-3l-2-3.2c-1.2-1.7-2.3-3-3.3-4c-1-1-1.9-1.7-2.7-2.2c-0.8-0.4-2.2-0.7-4.1-0.7
		h-1.5V305H504.5z M512.1,269.1h-1.8V282h2.2c3,0,5-0.3,6.1-0.8s2-1.3,2.6-2.3s0.9-2.2,0.9-3.5c0-1.3-0.3-2.5-1-3.5
		c-0.7-1-1.6-1.8-2.9-2.2C517,269.3,515,269.1,512.1,269.1z"/>
        <path fill="#FFFFFF" stroke="#FFFFFF" stroke-width="2" stroke-miterlimit="10" d="M557,263.5c6.3,0,11.6,2,15.8,6
		c4.2,4,6.3,9,6.3,15.1s-2.1,11-6.4,15s-9.6,5.9-16.1,5.9c-6.2,0-11.3-2-15.4-5.9c-4.1-4-6.2-8.9-6.2-14.9c0-6.1,2.1-11.2,6.2-15.2
		C545.5,265.5,550.7,263.5,557,263.5z M557.3,269.1c-4.7,0-8.5,1.5-11.5,4.4s-4.5,6.7-4.5,11.2c0,4.4,1.5,8.1,4.5,11
		c3,2.9,6.8,4.4,11.4,4.4c4.6,0,8.4-1.5,11.4-4.5s4.6-6.7,4.6-11.2c0-4.3-1.5-8-4.6-10.9S561.7,269.1,557.3,269.1z"/>
        <path fill="#FFFFFF" stroke="#FFFFFF" stroke-width="2" stroke-miterlimit="10" d="M614.8,264.1h5.9v23.2c0,3.1-0.2,5.5-0.7,7.1
		s-1,2.9-1.7,4c-0.7,1.1-1.5,2-2.5,2.9c-3.2,2.8-7.5,4.2-12.7,4.2c-5.3,0-9.6-1.4-12.8-4.2c-1-0.9-1.8-1.8-2.5-2.9
		c-0.7-1.1-1.2-2.4-1.7-3.9s-0.7-4-0.7-7.3v-23.2h5.9v23.2c0,3.8,0.4,6.5,1.3,8s2.2,2.7,4,3.6s3.9,1.4,6.4,1.4
		c3.5,0,6.3-0.9,8.5-2.7c1.2-1,2-2.1,2.5-3.5s0.8-3.6,0.8-6.8V264.1z"/>
        <path fill="#FFFFFF" stroke="#FFFFFF" stroke-width="2" stroke-miterlimit="10" d="M661.4,264.1h5.6V305h-5l-27.4-31.5V305H629
		v-40.9h4.7l27.6,31.8V264.1z"/>
        <path fill="#FFFFFF" stroke="#FFFFFF" stroke-width="2" stroke-miterlimit="10" d="M675.7,304.9v-40.9h13.8c5.6,0,10,0.8,13.2,2.5
		s5.8,4.1,7.7,7.4c1.9,3.2,2.9,6.8,2.9,10.6c0,2.7-0.5,5.4-1.6,7.9s-2.6,4.7-4.5,6.6c-2,2-4.3,3.4-6.9,4.4c-1.5,0.6-3,1-4.2,1.2
		s-3.8,0.3-7.4,0.3H675.7z M688.9,269.3h-7.3v30.4h7.5c2.9,0,5.2-0.2,6.8-0.6c1.6-0.4,3-0.9,4.1-1.5s2.1-1.4,3-2.3
		c2.9-2.9,4.3-6.6,4.3-11.1c0-4.4-1.5-8-4.5-10.8c-1.1-1-2.3-1.9-3.8-2.5c-1.4-0.7-2.8-1.1-4-1.3
		C693.8,269.4,691.7,269.3,688.9,269.3z"/>
    </g>
</svg>